<svg xmlns="http://www.w3.org/2000/svg" viewBox="0 0 120 120">
  <path
    d="M68 14c10 4 18 7 28 10v31c0 24-14 43-36 56-22-13-36-32-36-56V24c10-3 18-6 28-10h16Z"
    fill="#06B6D4"
    opacity="0.82"
    transform="translate(10 0)"
  />
  <path
    d="M60 12c10 4 18 7 28 10v31c0 24-14 43-36 56-22-13-36-32-36-56V22c10-3 18-6 28-10h16Z"
    fill="#2563EB"
  />
  <path
    d="M40 67.5 53.5 81 88 45"
    fill="none"
    stroke="#fff"
    stroke-linecap="round"
    stroke-linejoin="round"
    stroke-width="9.5"
  />
</svg>
